<?xml version="1.0" encoding="UTF-8"?>
<svg id="Layer_1" xmlns="http://www.w3.org/2000/svg" version="1.1" viewBox="0 0 1451.3 1451.3">
  <!-- Generator: Adobe Illustrator 30.3.0, SVG Export Plug-In . SVG Version: 2.1.3 Build 182)  -->
  <defs>
    <style>
      .st0 {
        fill: #cbc297;
      }

      .st1 {
        fill: #e5e0cb;
      }
    </style>
  </defs>
  <path class="st1" d="M-2412-1019.8c-3.2,1.5-7.8,1.5-11,0h11Z"/>
  <g>
    <path class="st0" d="M258.2,165.8c9.1,1.9,18.5,1.9,27.7,0h5c.6,1.5,2.3,2.4,4.8,2.7,54.3,5.8,97.9,39,120.1,88.7,16.1,36,23.8,73.6,24.2,113.7l1.9,208.3c23.7-53,63.5-94,116.8-115.9,49.3-20.3,105.6-15.2,147.1,18.7,28.1,23,40.5,56.5,46.6,91.8,23.7-48.1,57.3-84.7,103.9-107.1,49-23.6,106.6-20.7,151.8,9.6,44,29.5,59.9,88.2,58.1,141.5v234.8c-.1,0-86.9-34.9-86.9-34.9l-.6-206.8c0-23.4-6.1-45.4-17.1-65.5-10.6-19.3-28.6-32.3-50.1-38.1-79.3-21.3-156.4,58.9-157,132.7l-.7,88.6-82.8-33.9-.5-77c-.1-24-5-46.5-15.3-67.6-15.5-31.8-47.6-48.7-82.9-45.5s-41.5,8.4-56.7,23.7c-27.7,27.8-26.3,69.6.1,98.7,16.9,18.6,37.8,32.4,61.3,43.9,55.5,27.2,111.7,48.6,169.6,71.5l232.1,91.9c57.3,22.7,112.5,44.2,167.8,70.8,38.1,18.3,71.9,39.8,102.6,68.1,58.8,54.1,79.8,132.6,56.9,209-15.9,53.2-58.1,91-113.5,99.9-82.2,13.2-156.3-9.5-189.5-88.4s-23.8-82.6-23.8-126.8v-87.2s86.6,36.1,86.6,36.1l.3,51.2c.3,57.6,4.7,141.8,42.6,182.5,21.8,23.5,61.4,25.9,85.6,4.3,17.3-15.5,24.8-38.5,27-61.4,8.1-82.5-51.5-137.7-120.9-173.4-29.9-15.4-58.4-28.5-90.1-41l-389-153c-85.3-33.5-149-66.1-179.6-158.6l-1.4,236.8c-.3,41.5,9.9,80.3,32.7,116.4h-149.4c19.9-30.8,31.3-65.1,31.3-102.4V350c0-48.8-14.9-128-53.9-154.5-27.1-18.4-66.2-11.3-85.5,15.6-15.1,21-13.9,48.8-1,71.2,11.2,19.2,33.4,30.6,60.2,32.6-16.3,16.6-38.3,28.7-62.2,30.7-33.1,2.6-61-19.8-71.6-50.4-15.8-45.7,8.2-92.2,51.6-112.3s39.8-13.2,60.4-17.1h5Z"/>
    <path class="st0" d="M799.3,1019.5h-147.3c35.3-50.6,31.1-104.5,32.1-162.4l82.2,33.5c-2.2,46.7,6.5,90.2,33.1,128.9Z"/>
  </g>
</svg>