<?xml version="1.0" encoding="UTF-8"?>
<svg id="Layer_1" xmlns="http://www.w3.org/2000/svg" version="1.1" viewBox="0 0 1890 1417">
  <!-- Generator: Adobe Illustrator 30.3.0, SVG Export Plug-In . SVG Version: 2.1.3 Build 182)  -->
  <defs>
    <style>
      .st0 {
        fill: #cbc297;
      }

      .st1 {
        fill: #e5e0cb;
      }

      .st2 {
        fill: #dbd4b7;
      }
    </style>
  </defs>
  <path class="st1" d="M340.9-1137.8c-3.2,1.5-7.8,1.5-11,0h11Z"/>
  <g>
    <path class="st0" d="M223.4,485.9c3.6.7,7.4.7,11,0h2c.3.6.9,1,1.9,1.1,21.6,2.3,38.9,15.5,47.8,35.3,6.4,14.3,9.5,29.3,9.6,45.2l.8,82.8c9.4-21.1,25.2-37.4,46.4-46.1,19.6-8.1,42-6,58.5,7.4,11.2,9.1,16.1,22.5,18.5,36.5,9.4-19.1,22.8-33.7,41.3-42.6,19.5-9.4,42.4-8.2,60.4,3.8,17.5,11.7,23.8,35,23.1,56.3v93.3s-34.5-13.9-34.5-13.9l-.2-82.2c0-9.3-2.4-18.1-6.8-26s-11.4-12.8-19.9-15.1c-31.5-8.5-62.2,23.4-62.4,52.7l-.3,35.2-32.9-13.5-.2-30.6c0-9.5-2-18.5-6.1-26.9-6.2-12.6-18.9-19.4-33-18.1-8.5.8-16.5,3.4-22.5,9.4-11,11.1-10.5,27.7,0,39.2,6.7,7.4,15,12.9,24.4,17.4,22.1,10.8,44.4,19.3,67.4,28.4l92.3,36.5c22.8,9,44.7,17.6,66.7,28.2,15.1,7.3,28.6,15.8,40.8,27.1,23.4,21.5,31.7,52.7,22.6,83.1-6.3,21.2-23.1,36.2-45.1,39.7-32.7,5.3-62.1-3.8-75.3-35.2-6.7-16-9.5-32.8-9.5-50.4v-34.7s34.4,14.4,34.4,14.4v20.3c.3,22.9,2,56.4,17.1,72.6,8.7,9.3,24.4,10.3,34,1.7,6.9-6.2,9.9-15.3,10.7-24.4,3.2-32.8-20.5-54.7-48.1-68.9-11.9-6.1-23.2-11.3-35.8-16.3l-154.7-60.8c-33.9-13.3-59.2-26.3-71.4-63l-.6,94.1c-.1,16.5,3.9,31.9,13,46.3h-59.4c7.9-12.3,12.4-25.9,12.4-40.7v-225.5c0-19.4-5.9-50.9-21.4-61.4-10.8-7.3-26.3-4.5-34,6.2s-5.5,19.4-.4,28.3,13.3,12.2,23.9,13c-6.5,6.6-15.2,11.4-24.7,12.2s-24.3-7.9-28.5-20c-6.3-18.2,3.3-36.7,20.5-44.7,7.9-3.7,15.8-5.3,24-6.8h2Z"/>
    <path class="st0" d="M1042.4,653.3c0-9.4-3.7-17.8-8.1-25.1-8.3-13.9-23.5-20.1-39.5-19.5-31.8,1.2-61.6,26.4-64.9,59l.5,125.1c0,14.8,5.6,27.9,12.8,40.2h-58.6c7.1-13,13-26.8,13-42.4v-232.2c0-15.6-5.5-29.5-13-43,17.4.6,32.8-3.8,45.3-16.8l.3,143c6.5-9.3,10.8-16.6,18.6-23.4,28.1-26.3,81-41.6,110.2-12.8,9,8.8,13.1,20.5,15.3,32.6l1.4,15.6.6,141.1c0,14.1,5.7,26.8,12.7,38.2h-58.9c9.1-14,12.4-29.3,13.3-45.3v-38c0,0-.9-96.3-.9-96.3Z"/>
    <path class="st0" d="M1374.5,620c-2.2,1.5-2.6.5-1.1-3,6-14.7,19.6-24.7,35.6-26.9,10.5-1.5,21.5,1.6,29.5,8.6,8.2,7.2,10.5,18.4,7.9,28.8-4.2,17.3-19.6,30.6-34.7,40.2l-56.4,35.9c7.8.2,13.9-2.1,21.5-1.4,14.7,1.3,28.8,9.6,35.5,23.4l30.1,62.5,12.2,25c3.9,8.1,10.8,14.3,19.1,19.6h-68.5c11.2-11.9,7.4-32.3.7-46.1l-24.9-51.7c-4.1-8.5-10.1-16.3-19-20s-21.7-1.8-30.7,3.8l-6.4,4,.4,66.9c0,15.4,4.4,30.1,13.2,43.2h-59s4.6-7.6,4.6-7.6c5.7-12.7,8.6-25.8,8.7-40.3v-221.1c0,0-.9-12.3-.9-12.3-1-12.8-4.9-24.8-12.3-35.9,18.4-.3,32.9-4,45.4-17.2l.2,215.3,62.7-39.1c6.8-4.5,12.6-9.1,18.1-15.1,7.1-6.7,12.8-15.3,14.1-25,1.4-10.5-4-19.5-13.8-22.7-11.5-3.7-22.8,0-31.6,7.9Z"/>
    <path class="st0" d="M1167.8,784.7v-129.1c0-17.4-4-33.3-13.2-47.9,18,1,34-3.3,46-16.3l.5,202.4c0,14.5,5.7,27.5,12.4,39.2h-58.5c9.1-14.7,12.8-30.6,12.8-48.2Z"/>
    <path class="st0" d="M433.5,825.3h-58.6c14-20.1,12.4-41.6,12.7-64.6l32.7,13.3c-.9,18.6,2.6,35.9,13.1,51.2Z"/>
    <path class="st0" d="M1205.7,531.4c3.5,10.1-2,21.1-10.3,25.6s-20.7,3.6-27.6-4.2c-9.5-10.8-6.6-26.5,4.8-33.7,12.2-7.7,28-2.1,33,12.3Z"/>
    <path class="st2" d="M1374.5,620l-2.9,2.6c-.3-2.4,1-3.7,1.7-5.6,0,.6-.4,1.8-.3,2.1s1.3.6,1.4.9Z"/>
    <path class="st0" d="M806.5,790.6l-.9-117.9c-.1-15.1-3.3-29.1-9.4-42.4-6.9-15.4-18.8-26.9-34.6-33.3-46.8-18.7-113.7.4-115.6,45.4-.5,11.1,2.8,21.7,10.6,29,7.7,7.2,18.2,11.4,29.1,9.6,12.6-2.1,23.8-11.5,25.2-24.1-11.1,4.9-22.6,5.2-30.3-3-11.9-12.6-9.5-32.3,3.1-43.7,18.2-16.5,49.2-17.6,69.7-5.1,12.4,7.5,20.3,20,20.7,34.3.9,29.3-14.1,45.1-41,54.2l-44.1,14.8c-30,10.1-57.7,33.9-59.3,67.4-.8,16.7,6.5,31.8,19.2,42.8,14,12,31.8,15.8,50.3,13.9,21.1-2.1,40-10.4,55.9-24.2,7.4-6.4,12.4-13.7,18.3-22.9.9,10.3.5,19.1,4.7,27.6,5.7,11.6,15.9,19.8,29,19.8h12.2c-7.7-12.8-12.7-26.6-12.8-42.1ZM773.5,760.4c0,12.3-6.1,23.9-14.5,32.8-16.6,17.6-40.9,25.3-64.6,20.9-20.8-3.9-33.4-21.9-32.2-43.4,1-17.8,10.7-32.6,24.3-43,22.3-16.9,50-22.4,71.8-38.9,6.4-4.5,10-10.1,15.3-16.8v88.5Z"/>
    <path class="st0" d="M1702.4,791.5l-1-118.8c-.1-13.5-3.1-25.9-7.7-38.1-11.7-30.6-37.2-42.2-68.8-44.5-27.1-2-61.8,7.8-76.6,31.2-8.2,12.9-9.1,29-2,42.3,4.1,7.8,10.5,12.6,18.5,15.6,18.4,6.9,38.6-3.3,42.7-22.8-8.5,4.1-18,5.9-26.3,1.2-9.2-5.2-13.2-15.6-12.4-26.2.8-11.4,7.7-20.9,18-26.7,19.2-10.9,43.8-10.7,62.6.6,14.4,8.6,20.8,23.2,20.4,39.1-.7,27.3-17,41.3-41.9,49.5l-36.9,12c-31.5,10.3-61.2,31-65.4,65.2-4.1,32.9,22,59.4,54.5,61.4,29.4,1.8,57.6-9.8,77.3-31.2l11.5-15.9c.7,8.8.6,16,3.3,23.7,4.8,13.5,15.7,23.4,30.4,23.5h12.4c-7.8-12.6-12.6-26.3-12.7-41.3ZM1669.1,761.3c0,31.7-42.7,63-83.1,51.7-17-4.8-27.3-19.4-27.9-37.1-.4-12,2.3-22.1,8.5-31.6,7.4-11.3,17.8-20.1,30-25.8l30.5-14.4c10.3-4.9,20.3-9.8,29-16.8l13.2-15.6-.2,89.6Z"/>
  </g>
</svg>